<?xml version="1.0" encoding="UTF-8"?><svg id="a" xmlns="http://www.w3.org/2000/svg" viewBox="0 0 1080 1080"><path d="M485.4747,343.711h104.4927v393.5547h-104.4927v-393.5547Z"/><polygon points="634.401 343.711 634.401 441.3672 720.8993 441.3672 728.8834 441.3672 833.6197 441.3672 850.612 441.3672 927.8581 441.3672 927.8581 343.711 634.401 343.711"/><rect x="728.8834" y="497.6143" width="104.7363" height="239.6513"/><polygon points="289.1857 504.5031 185.9142 504.5031 185.9142 737.7539 289.1857 737.7539 289.1857 592.002 414.1857 592.002 414.1857 504.5996 289.1857 504.5996 289.1857 504.5031"/><polygon points="185.9142 342.7344 185.9142 440.8789 289.1857 440.8789 293.1857 440.8789 441.0411 440.8789 441.0411 342.7344 185.9142 342.7344"/></svg>